<?xml version="1.0" standalone="no"?>
<!DOCTYPE svg PUBLIC "-//W3C//DTD SVG 20010904//EN"
 "http://www.w3.org/TR/2001/REC-SVG-20010904/DTD/svg10.dtd">
<svg version="1.0" xmlns="http://www.w3.org/2000/svg"
 width="960.000000pt" height="960.000000pt" viewBox="0 0 960.000000 960.000000"
 preserveAspectRatio="xMidYMid meet">
<metadata>
Created by potrace 1.14, written by Peter Selinger 2001-2017
</metadata>
<g transform="translate(0.000000,960.000000) scale(0.100000,-0.100000)"
fill="#000000" stroke="none">
<path d="M4416 6953 c-1 -1 -44 -3 -94 -4 -58 -1 -90 -5 -86 -11 4 -6 -2 -5
-14 1 -24 13 -35 14 -29 4 3 -5 -33 -8 -79 -7 -46 0 -84 -2 -84 -6 0 -3 -18
-4 -40 -2 -22 2 -48 1 -58 -3 -15 -6 -53 -9 -185 -14 -21 0 -36 -4 -34 -8 3
-5 -27 -9 -67 -9 -39 -1 -82 -4 -96 -7 -14 -3 -38 -6 -53 -6 -16 -1 -26 -5
-23 -9 3 -5 -8 -6 -24 -4 -17 2 -38 1 -47 -3 -10 -4 -38 -9 -63 -12 -25 -2
-56 -6 -70 -9 -14 -3 -33 -6 -42 -6 -10 1 -18 -3 -18 -7 0 -4 -10 -7 -22 -6
-26 2 -194 -32 -211 -42 -6 -4 -25 -8 -42 -10 -50 -5 -315 -93 -315 -104 0 -6
-4 -8 -9 -5 -10 6 -170 -74 -201 -101 -10 -9 -16 -21 -13 -26 3 -6 1 -7 -5 -3
-10 6 -57 -46 -57 -64 0 -5 -3 -12 -7 -16 -5 -4 -8 -747 -8 -1651 0 -1846 -8
-1670 78 -1750 24 -24 51 -43 58 -43 7 0 14 -4 16 -8 11 -28 341 -152 467
-177 9 -2 68 -14 131 -28 63 -14 131 -28 150 -32 150 -25 227 -35 237 -30 7 2
13 1 13 -4 0 -5 35 -12 78 -16 42 -4 85 -9 95 -11 10 -1 50 -6 90 -10 39 -3
86 -8 102 -9 17 -2 64 -6 105 -10 41 -3 93 -8 115 -10 35 -4 292 -16 380 -18
17 -1 37 3 44 8 9 5 12 4 8 -2 -8 -13 71 -12 92 1 10 7 12 5 7 -3 -11 -17 492
-14 513 3 11 8 13 8 8 0 -5 -8 7 -11 41 -8 26 2 86 4 134 5 56 1 86 5 82 11
-4 6 2 5 14 -1 24 -13 35 -14 29 -3 -3 4 33 7 79 6 46 0 84 2 84 5 0 4 20 5
45 3 26 -3 52 1 60 8 10 8 15 9 15 2 0 -6 6 -9 13 -7 6 2 35 6 62 9 183 17
194 19 188 30 -4 8 -3 8 6 0 7 -7 30 -8 64 -3 28 5 72 11 97 14 119 14 192 26
204 33 5 3 21 6 35 7 53 4 131 18 131 24 0 4 12 6 27 5 15 0 48 5 73 13 43 13
56 16 118 29 15 3 29 9 30 15 2 5 8 7 12 4 15 -9 60 6 53 18 -3 6 -1 7 6 3 22
-14 306 97 295 115 -3 5 1 6 9 4 7 -3 25 5 40 19 15 14 27 22 27 19 0 -4 16 8
35 27 19 19 35 42 35 53 0 10 4 16 9 13 5 -3 11 4 15 17 3 12 6 759 6 1660 0
1839 8 1664 -78 1745 -24 23 -51 42 -58 42 -7 0 -14 4 -16 8 -11 29 -352 156
-478 179 -14 2 -50 10 -80 18 -48 12 -181 38 -260 51 -14 3 -36 6 -50 9 -57
11 -128 19 -167 19 -22 1 -39 5 -36 9 3 5 -1 7 -8 6 -8 -2 -41 1 -74 5 -33 5
-88 10 -122 12 -35 1 -66 5 -70 7 -13 8 -102 11 -109 4 -4 -4 -12 -3 -19 3
-12 10 -193 22 -367 24 -60 0 -108 3 -108 6 0 10 -95 5 -102 -5 -5 -6 -8 -5
-8 2 0 10 -72 12 -325 11 -179 -1 -327 -3 -329 -5z"/>
</g>
</svg>
